<?xml version="1.0" standalone="no"?>
<!DOCTYPE svg PUBLIC "-//W3C//DTD SVG 20010904//EN"
 "http://www.w3.org/TR/2001/REC-SVG-20010904/DTD/svg10.dtd">
<svg version="1.0" xmlns="http://www.w3.org/2000/svg"
 width="200.000000pt" height="200.000000pt" viewBox="0 0 200.000000 200.000000"
 preserveAspectRatio="xMidYMid meet">

<g transform="translate(0.000000,200.000000) scale(0.100000,-0.100000)"
fill="#000000" stroke="none">
<path d="M1273 1934 c-3 -8 -1 -20 6 -27 16 -16 14 -27 -6 -27 -10 0 -36 -9
-58 -20 -22 -11 -31 -17 -20 -14 60 20 66 18 59 -12 -4 -16 -11 -39 -15 -52
-13 -35 -10 -49 6 -28 14 19 15 18 24 -5 10 -27 15 -19 26 46 10 56 15 61 37
34 l19 -24 -16 33 c-8 17 -20 32 -25 32 -6 0 -10 7 -10 15 0 8 6 15 14 15 22
0 30 19 16 35 -16 20 -49 19 -57 -1z"/>
<path d="M631 1906 c-16 -19 -7 -46 14 -46 17 0 20 -16 5 -25 -12 -8 -42 -76
-36 -82 3 -3 12 9 21 26 8 17 18 31 21 31 6 0 56 -111 52 -115 -2 -1 -25 -14
-52 -29 -45 -24 -51 -25 -59 -10 -5 10 -25 31 -43 48 -19 17 -34 34 -34 38 0
4 17 9 38 11 27 3 22 4 -20 5 -53 2 -58 4 -55 24 3 28 -32 37 -49 13 -17 -23
-7 -45 22 -45 24 0 32 -14 14 -25 -5 -3 -9 -21 -9 -38 l1 -32 7 30 7 30 28
-30 c16 -16 35 -40 43 -52 14 -21 12 -24 -23 -55 -65 -56 -89 -81 -124 -130
-18 -27 -37 -48 -42 -48 -5 0 -32 12 -61 27 l-52 26 32 9 c18 5 33 11 33 14 0
9 -73 -6 -86 -17 -14 -11 -24 -1 -24 23 0 23 -32 24 -51 2 -19 -23 1 -50 35
-46 23 2 25 0 20 -26 -3 -16 1 -43 10 -62 l15 -35 -6 43 c-3 23 -2 42 1 42 11
0 95 -51 101 -61 3 -4 -6 -31 -19 -58 -14 -27 -28 -69 -31 -93 l-5 -43 11 35
c83 270 259 450 519 531 64 20 96 24 215 24 127 0 147 -3 224 -28 251 -86 420
-259 497 -512 14 -45 18 -94 18 -195 1 -115 -3 -145 -22 -205 -84 -252 -263
-428 -511 -502 -108 -32 -287 -36 -391 -9 -118 31 -243 99 -327 179 -174 166
-255 368 -239 602 3 50 2 69 -3 50 -14 -50 -12 -179 4 -256 32 -149 95 -267
200 -374 88 -89 166 -141 275 -181 210 -79 422 -67 619 33 83 43 101 46 101
16 0 -12 -3 -13 -14 -4 -11 9 -16 9 -21 1 -4 -7 8 -28 29 -49 20 -20 36 -40
36 -44 0 -4 -17 -7 -37 -8 -31 0 -34 -2 -18 -9 11 -5 39 -9 61 -9 38 -1 41 -3
37 -25 -7 -32 22 -41 48 -15 16 16 18 23 8 35 -6 8 -20 14 -29 14 -17 0 -17 3
-5 28 17 35 27 95 16 87 -5 -3 -12 -19 -16 -35 -4 -17 -11 -30 -15 -30 -5 0
-23 20 -40 45 -17 25 -35 45 -40 45 -6 0 27 37 73 83 116 115 141 149 172 229
13 34 23 48 37 48 32 0 108 -22 108 -31 0 -5 -3 -9 -7 -9 -5 0 -19 -10 -33
-21 -23 -18 -21 -18 23 3 26 12 47 26 47 30 0 17 19 7 25 -13 10 -31 49 -21
53 14 4 30 -20 46 -42 28 -15 -12 -26 -5 -26 18 -1 9 -10 34 -21 56 -18 36
-19 29 -3 -25 8 -25 -6 -26 -69 -3 l-48 17 6 46 c10 69 8 67 72 62 32 -2 60
-6 62 -8 2 -2 -2 -12 -10 -21 -11 -14 -9 -14 11 2 14 11 28 24 32 30 4 5 15 2
27 -9 24 -22 41 -14 41 19 0 32 -17 41 -40 20 -19 -17 -20 -17 -29 6 -5 13
-22 38 -36 54 l-27 30 21 -32 c12 -17 21 -34 21 -37 0 -8 -45 -7 -92 0 l-38 7
0 61 c0 33 -7 88 -15 121 -21 88 -21 89 33 108 68 25 76 23 57 -13 -9 -17 -12
-30 -7 -30 5 0 20 22 34 49 18 35 28 47 36 39 6 -6 18 -8 27 -4 21 8 16 45 -8
60 -15 9 -21 6 -37 -14 -11 -14 -20 -20 -20 -13 0 14 -88 68 -97 60 -3 -4 8
-14 26 -24 17 -10 29 -22 28 -28 -2 -5 -29 -17 -61 -26 l-57 -17 -28 56 c-39
77 -135 189 -199 232 -28 19 -51 38 -52 42 0 4 14 30 31 58 32 52 49 57 49 14
0 -13 4 -24 9 -24 8 0 0 60 -14 93 -6 14 -2 17 19 17 33 0 36 34 5 50 -26 14
-52 -4 -44 -32 5 -15 2 -18 -22 -16 -15 1 -41 0 -58 -2 -28 -3 -28 -3 9 -9
l39 -6 -37 -48 c-41 -54 -43 -61 -16 -52 11 3 20 2 20 -4 0 -22 -21 -19 -85
10 -181 82 -373 92 -575 30 -19 -6 -36 -11 -37 -11 -2 0 -3 10 -3 21 0 18 2
19 15 9 29 -24 29 1 1 51 -15 28 -26 52 -23 55 2 2 17 0 32 -6 15 -6 30 -8 32
-6 6 6 -64 36 -83 36 -8 0 -12 10 -11 27 2 21 -3 29 -19 31 -11 2 -26 -4 -33
-12z m-39 -278 c-13 -13 -32 -2 -32 18 0 12 4 13 21 3 14 -7 18 -14 11 -21z
m-242 -258 c0 -5 -7 -10 -15 -10 -8 0 -15 5 -15 10 0 6 7 10 15 10 8 0 15 -4
15 -10z m1400 -90 c0 -5 -7 -10 -15 -10 -8 0 -15 5 -15 10 0 6 7 10 15 10 8 0
15 -4 15 -10z m48 -338 c2 -7 -3 -12 -12 -12 -9 0 -16 7 -16 16 0 17 22 14 28
-4z m-33 -162 c3 -5 -1 -10 -9 -10 -9 0 -16 5 -16 10 0 6 4 10 9 10 6 0 13 -4
16 -10z"/>
<path d="M950 1686 c0 -2 7 -7 16 -10 8 -3 12 -2 9 4 -6 10 -25 14 -25 6z"/>
<path d="M1062 1658 c-2 -44 -20 -58 -39 -33 -7 11 -13 14 -13 8 0 -6 7 -16
16 -23 23 -20 47 8 41 51 l-4 34 -1 -37z"/>
<path d="M885 1670 c3 -5 8 -10 11 -10 2 0 4 5 4 10 0 6 -5 10 -11 10 -5 0 -7
-4 -4 -10z"/>
<path d="M925 1660 c-7 -23 10 -60 29 -60 20 0 38 26 33 47 -4 14 -5 13 -6 -5
-1 -27 -29 -41 -42 -21 -5 8 -7 24 -4 37 7 27 -1 29 -10 2z"/>
<path d="M1101 1648 c1 -18 3 -25 6 -15 2 9 8 15 13 12 4 -3 6 4 3 15 -8 32
-23 23 -22 -12z"/>
<path d="M1200 1650 c0 -5 7 -7 15 -4 21 8 31 -24 15 -50 -12 -19 -12 -20 3
-7 20 16 22 42 5 59 -14 14 -38 16 -38 2z"/>
<path d="M786 1635 c4 -8 8 -15 10 -15 2 0 4 7 4 15 0 8 -4 15 -10 15 -5 0 -7
-7 -4 -15z"/>
<path d="M1151 1637 c-1 -10 -5 -16 -10 -13 -5 4 -7 -4 -3 -16 l5 -22 9 24 c5
13 7 28 4 34 -2 6 -5 3 -5 -7z"/>
<path d="M860 1623 c0 -11 3 -14 8 -7 4 6 14 14 22 17 10 4 8 6 -7 6 -16 1
-23 -5 -23 -16z"/>
<path d="M734 1622 c4 -7 13 -12 20 -12 7 0 21 -9 31 -20 20 -22 37 -27 30 -7
-3 6 -18 18 -33 25 -49 24 -56 26 -48 14z"/>
<path d="M670 1583 c0 -14 2 -15 9 -4 7 10 11 9 22 -6 8 -11 21 -23 29 -28 8
-4 2 6 -14 23 -34 36 -46 40 -46 15z"/>
<path d="M1266 1581 c-10 -10 -14 -21 -9 -24 9 -5 27 12 31 31 3 17 -2 15 -22
-7z"/>
<path d="M1365 1570 c-3 -11 -13 -26 -21 -34 -8 -8 -10 -17 -5 -20 5 -3 14 8
21 25 9 20 18 28 28 24 12 -4 13 -3 2 10 -16 19 -17 19 -25 -5z"/>
<path d="M630 1550 c6 -11 12 -20 14 -20 2 0 2 9 -1 20 -3 11 -9 20 -15 20 -5
0 -4 -9 2 -20z"/>
<path d="M1301 1554 c0 -11 3 -14 6 -6 3 7 2 16 -1 19 -3 4 -6 -2 -5 -13z"/>
<path d="M682 1530 c0 -14 2 -19 5 -12 2 6 2 18 0 25 -3 6 -5 1 -5 -13z"/>
<path d="M1402 1520 c-31 -41 -28 -48 4 -10 15 17 24 33 22 35 -2 3 -14 -9
-26 -25z"/>
<path d="M580 1536 c0 -2 12 -12 28 -21 l27 -18 -19 21 c-17 20 -36 29 -36 18z"/>
<path d="M572 1481 c13 -17 27 -30 31 -30 5 -1 -2 12 -15 28 -13 17 -27 30
-31 30 -5 1 2 -12 15 -28z"/>
<path d="M1432 1498 c-16 -16 -15 -43 3 -58 13 -10 19 -10 35 5 11 10 20 22
20 28 0 5 -8 -1 -18 -13 -11 -13 -24 -20 -30 -16 -18 11 -14 44 6 55 9 6 12
11 7 11 -6 0 -16 -5 -23 -12z"/>
<path d="M540 1455 c13 -14 25 -25 27 -25 9 0 -33 49 -41 50 -5 0 1 -11 14
-25z"/>
<path d="M1495 1425 c-16 -14 -25 -25 -19 -25 6 0 17 7 24 15 7 8 16 12 21 9
5 -3 9 2 9 10 0 20 1 20 -35 -9z"/>
<path d="M1540 1397 c-13 -21 -13 -21 -20 -2 -6 17 -7 16 -12 -8 -3 -15 -3
-27 -1 -27 12 0 62 49 55 54 -4 2 -14 -5 -22 -17z"/>
<path d="M455 1390 c-3 -6 1 -7 10 -4 8 4 23 0 33 -7 15 -13 16 -12 3 4 -15
19 -36 22 -46 7z"/>
<path d="M440 1362 c0 -13 50 -45 58 -38 3 3 1 6 -4 6 -6 0 -20 9 -32 20 -12
12 -22 17 -22 12z"/>
<path d="M1595 1339 c4 -11 -3 -20 -25 -29 -17 -7 -29 -15 -26 -17 2 -2 18 3
34 11 23 12 32 13 35 3 3 -6 6 -7 6 -1 1 5 -6 19 -14 30 -10 13 -13 14 -10 3z"/>
<path d="M439 1299 c18 -11 35 -18 38 -15 5 5 -50 36 -64 36 -4 0 7 -9 26 -21z"/>
<path d="M402 1272 c-9 -6 -5 -12 15 -20 25 -11 26 -11 10 2 -18 14 -18 14 0
19 12 3 13 5 3 6 -8 0 -21 -3 -28 -7z"/>
<path d="M1598 1257 c-30 -12 -40 -31 -10 -20 22 8 59 33 47 32 -6 -1 -22 -6
-37 -12z"/>
<path d="M1594 1213 c-10 -7 -13 -13 -7 -13 7 0 14 4 18 10 3 5 12 7 19 4 8
-3 17 -1 20 5 9 14 -29 10 -50 -6z"/>
<path d="M370 1195 c-9 -10 -9 -15 -1 -15 6 0 11 5 11 11 0 7 11 8 29 4 17 -3
32 -2 36 4 10 17 -61 13 -75 -4z"/>
<path d="M1628 1178 c-16 -5 -28 -15 -28 -21 0 -8 4 -7 12 1 7 7 20 12 29 12
10 0 21 5 24 10 7 12 -1 12 -37 -2z"/>
<path d="M400 1166 c0 -2 8 -10 18 -17 15 -13 16 -12 3 4 -13 16 -21 21 -21
13z"/>
<path d="M350 1129 c0 -5 12 -9 26 -9 14 0 23 -4 19 -10 -3 -5 -2 -10 4 -10 5
0 13 5 16 10 3 6 5 10 3 10 -2 0 -18 4 -36 9 -20 6 -32 6 -32 0z"/>
<path d="M1607 1127 c5 -9 73 -6 73 3 0 3 -18 6 -39 5 -21 0 -37 -3 -34 -8z"/>
<path d="M354 1085 c-19 -14 -19 -14 3 -15 12 0 30 -3 40 -6 12 -3 10 -1 -5 8
-12 8 -19 17 -16 21 13 12 -2 7 -22 -8z"/>
<path d="M1655 1089 c-4 -6 -4 -13 -1 -16 3 -4 6 -1 6 6 0 8 6 11 16 7 8 -3
12 -2 9 4 -8 13 -22 13 -30 -1z"/>
<path d="M1611 1073 c-1 -27 17 -40 32 -23 9 10 9 11 -1 6 -7 -5 -16 1 -21 16
-10 23 -10 23 -10 1z"/>
<path d="M1000 1050 c-24 -24 -25 -38 -5 -67 14 -19 13 -22 -10 -37 -31 -20
-32 -36 -2 -64 31 -29 68 -28 102 4 l29 27 -31 28 c-27 23 -30 29 -17 40 19
15 18 54 -2 73 -21 21 -40 20 -64 -4z"/>
<path d="M358 1018 c-27 -9 -39 -28 -18 -28 6 0 10 5 10 10 0 6 8 10 18 10 9
0 24 5 32 10 13 9 13 10 0 9 -8 0 -27 -5 -42 -11z"/>
<path d="M376 991 c-3 -5 1 -12 10 -15 22 -8 25 -4 9 11 -8 7 -16 9 -19 4z"/>
<path d="M1638 993 c12 -2 30 -2 40 0 9 3 -1 5 -23 4 -22 0 -30 -2 -17 -4z"/>
<path d="M107 921 c-31 -35 -37 -37 -50 -24 -9 9 -23 13 -31 10 -20 -8 -21
-41 -1 -57 13 -10 19 -10 35 5 19 17 20 17 29 -6 10 -25 71 -89 71 -74 0 5
-12 21 -27 37 -23 24 -24 28 -9 34 9 4 39 4 66 2 28 -3 50 -1 50 3 0 5 -7 9
-15 9 -8 0 -15 5 -15 10 0 6 7 10 15 10 8 0 15 5 15 10 0 6 -29 10 -67 10
l-67 0 29 30 c16 17 24 30 18 30 -6 0 -26 -17 -46 -39z"/>
<path d="M370 910 c0 -6 -10 -15 -22 -20 -13 -5 -17 -9 -10 -9 6 -1 12 -9 12
-19 0 -14 8 -19 30 -19 16 0 27 4 24 9 -3 5 -1 14 4 21 7 8 3 17 -14 30 -13
10 -24 13 -24 7z"/>
<path d="M1627 899 c-11 -10 -14 -19 -8 -23 6 -4 8 -12 5 -19 -2 -8 7 -12 26
-13 16 -1 27 3 24 8 -3 5 -1 14 4 21 7 8 4 17 -11 28 -20 15 -23 14 -40 -2z"/>
<path d="M397 772 c-14 -3 -16 -7 -6 -18 15 -18 35 -18 42 0 6 16 -9 24 -36
18z"/>
<path d="M1604 762 c-15 -9 -3 -37 16 -37 19 0 31 28 16 37 -6 4 -13 8 -16 8
-3 0 -10 -4 -16 -8z"/>
<path d="M139 728 c-8 -18 -12 -39 -11 -45 3 -15 -3 -16 -27 -4 -22 12 -44 -1
-39 -24 4 -22 39 -45 44 -30 14 36 22 38 52 16 34 -24 57 -29 26 -6 -16 13
-17 16 -4 24 8 6 34 16 57 23 42 12 62 31 23 21 -25 -7 -26 12 -3 26 10 5 15
12 12 15 -3 4 -32 -5 -64 -19 -31 -14 -60 -24 -62 -21 -3 2 1 14 7 26 6 12 10
24 7 26 -2 3 -10 -10 -18 -28z"/>
<path d="M446 673 c-11 -12 -6 -30 9 -30 8 0 15 6 15 13 0 15 -15 26 -24 17z"/>
<path d="M1556 643 c-11 -11 -6 -23 8 -23 8 0 17 4 20 9 7 10 -19 23 -28 14z"/>
<path d="M555 584 l-30 -26 33 22 c17 12 32 23 32 26 0 7 -4 5 -35 -22z"/>
<path d="M970 534 c0 -34 4 -53 10 -49 6 3 10 28 10 56 0 27 -4 49 -10 49 -5
0 -10 -25 -10 -56z"/>
<path d="M1030 535 c0 -42 3 -55 15 -55 12 0 15 13 15 55 0 42 -3 55 -15 55
-12 0 -15 -13 -15 -55z"/>
<path d="M1095 580 c3 -5 8 -10 11 -10 2 0 4 5 4 10 0 6 -5 10 -11 10 -5 0 -7
-4 -4 -10z"/>
<path d="M1441 574 c-1 -12 6 -25 15 -28 13 -5 14 -3 7 6 -6 7 -13 20 -16 28
-4 10 -6 8 -6 -6z"/>
<path d="M857 568 c-2 -7 4 -27 14 -45 10 -17 15 -34 12 -37 -4 -3 1 -6 10 -6
21 0 21 -2 -3 54 -22 49 -26 53 -33 34z"/>
<path d="M1400 563 c0 -5 12 -20 28 -34 l27 -24 -25 30 c-14 17 -26 32 -27 34
-2 2 -3 0 -3 -6z"/>
<path d="M583 553 c-15 -6 -17 -29 -3 -38 6 -4 7 1 3 11 -5 13 -3 15 7 9 9 -6
11 -4 5 5 -5 8 -3 11 6 8 8 -3 13 -14 11 -24 -2 -15 -1 -16 7 -4 7 9 6 19 -1
27 -11 14 -15 14 -35 6z"/>
<path d="M630 501 c-15 -30 -12 -33 10 -11 22 22 25 30 10 30 -5 0 -14 -9 -20
-19z"/>
<path d="M1400 516 c0 -2 8 -10 18 -17 15 -13 16 -12 3 4 -13 16 -21 21 -21
13z"/>
<path d="M930 500 c0 -5 5 -10 10 -10 6 0 10 5 10 10 0 6 -4 10 -10 10 -5 0
-10 -4 -10 -10z"/>
<path d="M1367 479 c12 -12 24 -21 27 -18 2 2 -8 13 -22 23 l-27 19 22 -24z"/>
<path d="M680 472 c0 -5 7 -9 15 -9 8 0 12 4 9 9 -3 4 -9 8 -15 8 -5 0 -9 -4
-9 -8z"/>
<path d="M400 425 c-19 -24 -38 -44 -42 -45 -5 0 -8 16 -8 36 0 23 -4 33 -11
28 -7 -4 -10 -25 -6 -59 5 -48 4 -51 -16 -51 -31 1 -36 -39 -7 -54 25 -13 52
3 48 29 -2 12 3 15 22 13 32 -5 29 -5 70 -2 33 3 33 3 -10 9 l-45 6 43 46 c46
51 53 66 22 49 -19 -10 -20 -9 -14 14 9 38 -7 32 -46 -19z"/>
<path d="M1313 454 c-3 -8 -2 -19 3 -24 5 -5 9 1 9 16 0 28 -3 30 -12 8z"/>
<path d="M686 433 c-6 -14 -5 -15 5 -6 7 7 10 15 7 18 -3 3 -9 -2 -12 -12z"/>
<path d="M745 418 c-11 -24 -12 -28 -2 -16 8 10 17 15 20 11 4 -3 7 3 7 15 0
30 -7 27 -25 -10z"/>
<path d="M1270 436 c0 -2 7 -7 16 -10 8 -3 12 -2 9 4 -6 10 -25 14 -25 6z"/>
<path d="M805 412 c-6 -4 -11 -18 -12 -32 -3 -25 -2 -25 13 3 16 30 16 41 -1
29z"/>
<path d="M1210 413 c0 -5 7 -18 15 -29 13 -18 14 -18 8 4 -5 22 -23 41 -23 25z"/>
<path d="M1250 414 c0 -6 7 -17 16 -24 12 -11 18 -10 32 5 16 18 16 18 -1 5
-15 -11 -20 -10 -32 6 -8 10 -15 14 -15 8z"/>
<path d="M760 390 c0 -5 5 -10 11 -10 5 0 7 5 4 10 -3 6 -8 10 -11 10 -2 0 -4
-4 -4 -10z"/>
<path d="M836 391 c-3 -5 2 -8 12 -7 12 1 16 -5 15 -22 -2 -13 1 -21 7 -17 16
10 12 42 -6 49 -20 8 -22 8 -28 -3z"/>
<path d="M904 386 c-3 -8 -4 -22 -2 -32 2 -14 6 -13 23 7 19 22 19 23 1 9 -18
-14 -19 -13 -14 8 7 24 1 30 -8 8z"/>
<path d="M1182 375 c6 -14 15 -25 19 -25 4 0 2 11 -4 25 -7 14 -15 25 -19 25
-4 0 -2 -11 4 -25z"/>
<path d="M1050 358 c0 -23 3 -29 9 -19 5 8 7 21 3 29 -4 12 0 14 16 10 12 -4
20 -2 16 3 -3 5 -14 9 -25 9 -15 0 -19 -7 -19 -32z"/>
<path d="M1124 379 c-5 -8 -3 -9 6 -4 7 4 16 2 22 -6 8 -12 9 -12 6 0 -6 20
-24 25 -34 10z"/>
<path d="M960 346 c0 -8 4 -17 9 -20 5 -4 7 3 4 14 -6 23 -13 26 -13 6z"/>
<path d="M1086 347 c3 -10 9 -15 12 -12 3 3 0 11 -7 18 -10 9 -11 8 -5 -6z"/>
<path d="M1120 353 c0 -19 21 -27 33 -13 9 10 9 11 -2 5 -8 -4 -17 -2 -22 6
-6 9 -9 10 -9 2z"/>
<path d="M1100 234 c0 -5 7 -31 15 -58 19 -63 19 -69 -2 -62 -15 5 -15 4 1 -9
11 -8 26 -15 33 -15 7 0 13 -4 13 -10 0 -5 -5 -10 -11 -10 -6 0 -9 -10 -7 -22
4 -28 36 -31 52 -5 9 15 7 21 -8 32 -19 14 -18 15 8 42 15 15 32 36 38 48 5
11 -1 7 -14 -9 -14 -16 -30 -26 -35 -23 -6 4 -14 30 -18 57 -6 46 -25 71 -25
33 0 -14 -2 -14 -20 2 -11 10 -20 14 -20 9z"/>
<path d="M940 170 c0 -33 -3 -60 -7 -60 -4 0 -17 10 -30 22 -13 12 -23 17 -23
11 0 -6 16 -25 36 -43 33 -29 35 -32 18 -44 -24 -18 -11 -46 21 -46 28 0 44
25 26 43 -14 14 -14 27 0 27 6 0 26 12 45 26 19 15 40 24 49 20 9 -3 13 -2 10
4 -9 15 -41 12 -55 -5 -7 -8 -19 -15 -27 -15 -13 0 -15 11 -11 60 2 33 1 60
-4 60 -4 0 -8 -7 -8 -15 0 -8 -4 -15 -10 -15 -5 0 -10 7 -10 15 0 8 -4 15 -10
15 -6 0 -10 -27 -10 -60z"/>
</g>
</svg>
